# xmcd CD database file
#
# Track frame offsets:
#	182
#	10200
#	21300
#	34275
#	44325
#	53900
#	61800
#	73650
#	83175
#	93975
#	107250
#	115950
#	180225
#	210600
#
# Disc length: 3122 seconds
#
# Revision: 0
# Processed by: cddbd v1.5.1PL0 Copyright (c) Steve Scherf et al.
# Submitted via: CDex 1.50beta10
#
DISCID=b30c300e
DTITLE=John Mayall and the Bluesbrakers - Crocodile Walk
DYEAR=1990
DGENRE=Blues
TTITLE0=Crawling Up a Hill
TTITLE1=Crocodile Walk
TTITLE2=Bye Bye Bird
TTITLE3=I'm Your Witchdoctor
TTITLE4=Cheating Woman
TTITLE5=Nowhere to Run
TTITLE6=On Top of the World
TTITLE7=Key to Love
TTITLE8=Ridin' the L&N
TTITLE9=Sitting in the Rain
TTITLE10=Leaping Christine
TTITLE11=Parchman Farm
TTITLE12=Time Has Come
TTITLE13=2401
EXTD=YEAR: 1990
EXTT0=
EXTT1=
EXTT2=
EXTT3=
EXTT4=
EXTT5=
EXTT6=
EXTT7=
EXTT8=
EXTT9=
EXTT10=
EXTT11=
EXTT12=
EXTT13=
PLAYORDER=
